<svg xmlns="http://www.w3.org/2000/svg" viewBox="0 0 100 100" color="#30a0ff" width="100" height="100"><metadata><rdf:RDF xmlns:rdf="http://www.w3.org/1999/02/22-rdf-syntax-ns#" xmlns:dc="http://purl.org/dc/elements/1.1/"><rdf:Description><dc:creator>RealFaviconGenerator</dc:creator><dc:source>https://realfavicongenerator.net</dc:source></rdf:Description></rdf:RDF></metadata><rect x="15" y="15" width="70" height="70" style="fill: currentcolor; stroke-linecap: round; stroke-linejoin: round; stroke: currentcolor; stroke-width: 30px;">
  </rect><path style="fill: rgb(255, 255, 255);" d="M 14.651 77.843 C 10.861 77.432 13.85 59.753 15.804 52.96 C 18.739 42.76 22.508 36.165 26.56 29.614 C 28.887 25.85 34.54 18.149 38.651 16.835 C 41.627 15.883 44.429 17.003 46.365 18.791 C 47.98 20.281 48.725 21.694 49.117 24.199 C 50.581 33.554 48.527 51.539 48.527 51.539 C 48.527 51.539 56.583 32.861 70.298 20.462 C 73.09 17.939 77.01 17.607 78.835 18.136 C 81.885 19.02 83.917 20.785 84.938 22.742 C 86.533 25.8 86.803 30.89 86.732 34.355 C 86.417 49.658 78.159 84.975 74.088 85.139 C 69.774 85.313 70.462 77.034 70.71 73.805 C 71.218 67.179 72.159 38.61 72.159 38.61 C 62.356 46.176 46.542 72.308 42.987 72.192 C 40.379 72.107 37.741 37.74 37.741 37.74 C 19.919 59.187 19.757 78.396 14.651 77.843 Z">
  </path></svg>