<svg xmlns="http://www.w3.org/2000/svg" viewBox="0 0 210 210">
  <rect x="25" width="150" height="130" style="fill: rgb(216, 216, 216); stroke: rgb(0, 0, 0); stroke-width: 0px;" rx="10" ry="10" y="20"></rect>
  <rect x="25" y="40" width="150" height="100" style="stroke-linejoin: round; stroke-width: 0; stroke: rgb(255, 255, 255); fill: rgb(236, 236, 236);" rx="0" ry="0"></rect>
  <rect y="80" width="110" height="90" style="stroke-linejoin: round; stroke-linecap: round; stroke-width: 0px; stroke: rgb(0, 0, 0); fill: rgb(252, 200, 0);" rx="10" ry="10" x="5"></rect>
  <rect x="55" y="100" width="100" height="80" style="stroke: rgb(0, 0, 0); stroke-width: 0px; fill: rgb(0, 188, 255);" rx="10" ry="10"></rect>
  <rect x="15" y="90" width="30" height="30" style="stroke-linejoin: round; stroke-width: 0; stroke: rgb(255, 255, 255); fill: rgb(254, 243, 198);" rx="8" ry="8"></rect>
  <rect x="15" y="130" width="30" height="30" style="stroke-linejoin: round; stroke-width: 0; stroke: rgb(255, 255, 255); fill: rgb(254, 243, 198);" rx="8" ry="8"></rect>
  <rect x="64.957" y="110" width="30" height="30" style="stroke-linejoin: round; stroke-width: 0; stroke: rgb(255, 255, 255); fill: rgb(184, 230, 254);" rx="8" ry="8"></rect>
  <rect x="85" y="50" width="120" height="110" style="stroke: rgb(0, 0, 0); stroke-width: 0px; fill: rgb(251, 44, 54);" rx="10" ry="10"></rect>
  <rect x="95" y="80" width="30" height="30" style="stroke-linejoin: round; stroke-width: 0; stroke: rgb(255, 255, 255); fill: rgb(255, 201, 201);" rx="8" ry="8"></rect>
  <rect x="135" y="80" width="60" height="70" style="stroke-linejoin: round; stroke-width: 0; stroke: rgb(255, 255, 255); fill: rgb(255, 201, 201);" rx="8" ry="8"></rect>
  <rect x="95" y="120" width="30" height="30" style="stroke-linejoin: round; stroke-width: 0; stroke: rgb(255, 255, 255); fill: rgb(255, 201, 201);" rx="8" ry="8"></rect>
  <rect x="45" y="25" width="125" height="10" style="stroke-linejoin: round; stroke-width: 0; stroke: rgb(255, 255, 255); fill: rgb(236, 236, 236);" rx="5" ry="5"></rect>
  <ellipse style="stroke: rgb(0, 0, 0); fill: rgb(251, 44, 54); stroke-width: 0px;" cx="35" cy="30" rx="5" ry="5"></ellipse>
  <rect x="95" y="60" width="70" height="10" style="stroke-linejoin: round; stroke-width: 0; stroke: rgb(255, 255, 255); fill: rgb(255, 201, 201);" rx="5" ry="5"></rect>
</svg>